<svg width="115.99999999999999" height="113" xmlns="http://www.w3.org/2000/svg" fill="none">

 <g>
  <title>Layer 1</title>
  <path id="svg_1" fill="#A68238" d="m75.1019,23.24013c0.54,-0.67 0.72,-1.87 0.72,-1.87l-32.1501,0c0,0 0.4,1.33 0.73,1.87l30.6901,0l0.01,0z"/>
  <path id="svg_2" fill="#A68238" d="m73.2299,25.97013c0.6,-0.53 1.21,-1.6 1.21,-1.6l-29.4399,0c0,0 0.33,0.8 1.07,1.6l27.1599,0l0,0z"/>
  <path id="svg_3" fill="#A68238" d="m70.9099,28.43043c0.73,-0.4 1.33,-1.2 1.33,-1.2l-25.1599,0c0,0 0.6,0.67 1.19,1.2l22.6499,0l-0.01,0z"/>
  <path id="svg_4" fill="#A68238" d="m67.9709,30.76033c0.73,-0.27 1.53,-0.94 1.53,-0.94l-19.6298,0c0,0 0,0.14 1.39,0.94l16.7098,0l0,0z"/>
  <path id="svg_5" fill="#A68238" d="m53.5214,32.22073c0,0 2.0701,1.21 6.1301,1.21c4.0604,0 6.6504,-1.21 6.6504,-1.21l-12.7805,0z"/>
  <path id="svg_6" fill="#003873" d="m53.1901,34.95993c0,0 2.47,0.13 3.92,1.26c1.4,1.2 2.47,3.2001 2.47,3.2001c0,0 0.87,-1.9201 2.2698,-2.9201c1.39,-1.07 3.66,-1.53 3.66,-1.53l25.37,0l4.99,7.3901l-22.78,0c0,0 -1.59,0.06 -3.99,1.47c-1.27,0.72 -2.21,1.9899 -2.21,1.9899c0,0 -0.19,0.6 -0.46,0.93c-0.27,0.34 -0.47,0.61 -0.79,0.74c-0.34,0.14 -0.27,0.06 -0.27,0.06l-11.8498,0c0,0 -0.48,-0.1899 -0.73,-0.5999c-0.27,-0.4 -0.07,-0.2601 -0.34,-0.5801c-0.2,-0.33 -0.67,-1.21 -2.47,-2.4c-1.86,-1.21 -3.66,-1.3299 -3.66,-1.3299l-23.16,0l5.05,-7.66l24.97,0l0.01,-0.0201z"/>
  <path id="svg_7" fill="#003873" d="m35.2717,45.41013l0,37.81c0,0 0.13,3.34 2.93,7.86c2.8,4.53 6.85,6.6 6.85,6.6l3.2,-4.99c0,0 -2.79,-1.67 -4.93,-4.87c-2.06,-3.19 -2.06,-5.93 -2.06,-5.93l0,-36.48l-6,0l0.01,0z"/>
  <path stroke="null" id="svg_8" fill="#003873" d="m78.1609,45.28023l0,36.4801c0,0 -0.46,3.6699 -2.2,6.2599c-1.73,2.66 -4.6,4.8001 -4.6,4.8001l3.08,4.9199c0,0 4.65,-3.39 6.91,-6.99c2.27,-3.59 2.81,-8.9899 2.81,-8.9899l0,-36.4801l-6,0z"/>
  <path id="svg_9" fill="#003873" d="m25.7714,45.41013l0,37.95c0,0 0.39,5.86 4.05,11.99c3.68,6.1203 10.32,10.3803 10.32,10.3803l3.14,-4.99c0,0 -4.27,-2.2603 -7.65,-7.4703c-3.48,-5.26 -3.6599,-10.05 -3.6599,-10.05l0,-37.81l-6.1901,0l-0.01,0z"/>
  <path id="svg_10" fill="#A68238" d="m53.1906,49.40043l0,40.08c0,0 -0.15,0.14 -0.2,0.73c-0.07,0.61 -0.47,1.01 -0.47,1.01l-13.38,22.17l41.0103,0l-13.39,-22.64l-0.4,-1.01l-0.14,-1.06l0,-39.21l-4.99,0l0,40.69c0,0 0,0.58 0.2,1.06c0.12,0.47 0.4,1.19 0.4,1.19l8.25,13.58l-20.9103,0l8.12,-13.51c0,0 0.27,-0.46 0.47,-1.13c0.14,-0.6 0.2,-1.19 0.2,-1.19l0,-40.76l-4.79,0l0.02,0z"/>
  <path id="svg_11" fill="#003873" d="m87.4109,45.28053l0,37.29c0,0 -0.06,4.79 -3.59,10.32c-3.53,5.53 -7.59,7.8599 -7.59,7.8599l3,5.05c0,0 6.12,-3.86 9.99,-9.9899c3.8,-6.13 4.26,-13.25 4.26,-13.25l0,-37.29l-6.07,0l0,0.01z"/>
  <path id="svg_12" fill="#A68238" d="m43.4707,20.31003c0,0 -2.06,-11.24004 6.19,-16.85004c0,0 3.73,-3.45999 9.78,-3.45999c6.4702,0 10.1902,3.39001 10.1902,3.39001c8.99,6.58002 6.33,16.91002 6.33,16.91002l-32.4902,0l0,0.01z"/>
 </g>
</svg>