<svg width="194" height="115" viewBox="0 0 194 115" fill="none" xmlns="http://www.w3.org/2000/svg">
<path d="M114.141 24.0497C114.681 23.3797 114.861 22.1797 114.861 22.1797H82.7109C82.7109 22.1797 83.1109 23.5097 83.4409 24.0497H114.131H114.141Z" fill="#A68238"/>
<path d="M112.269 26.7797C112.869 26.2497 113.479 25.1797 113.479 25.1797H84.0391C84.0391 25.1797 84.3691 25.9797 85.1091 26.7797H112.269V26.7797Z" fill="#A68238"/>
<path d="M109.949 29.24C110.679 28.84 111.279 28.04 111.279 28.04H86.1191C86.1191 28.04 86.7191 28.71 87.3091 29.24H109.959H109.949Z" fill="#A68238"/>
<path d="M107.01 31.5699C107.74 31.2999 108.54 30.6299 108.54 30.6299H88.9102C88.9102 30.6299 88.9102 30.7699 90.3002 31.5699H107.01V31.5699Z" fill="#A68238"/>
<path d="M92.5605 33.0303C92.5605 33.0303 94.6306 34.2403 98.6906 34.2403C102.751 34.2403 105.341 33.0303 105.341 33.0303H92.5605Z" fill="#A68238"/>
<path d="M92.2292 35.7695C92.2292 35.7695 94.6992 35.8995 96.1492 37.0295C97.5492 38.2295 98.6192 40.2296 98.6192 40.2296C98.6192 40.2296 99.4892 38.3095 100.889 37.3095C102.279 36.2395 104.549 35.7795 104.549 35.7795H129.919L134.909 43.1696H112.129C112.129 43.1696 110.539 43.2296 108.139 44.6396C106.869 45.3596 105.929 46.6295 105.929 46.6295C105.929 46.6295 105.739 47.2295 105.469 47.5595C105.199 47.8995 104.999 48.1695 104.679 48.2995C104.339 48.4395 104.409 48.3595 104.409 48.3595H92.5592C92.5592 48.3595 92.0792 48.1696 91.8292 47.7596C91.5592 47.3596 91.7592 47.4995 91.4892 47.1795C91.2892 46.8495 90.8192 45.9695 89.0192 44.7795C87.1592 43.5695 85.3592 43.4496 85.3592 43.4496H62.1992L67.2492 35.7896H92.2192L92.2292 35.7695Z" fill="#003873"/>
<path d="M74.3108 46.2197V84.0297C74.3108 84.0297 74.4408 87.3697 77.2408 91.8897C80.0408 96.4197 84.0908 98.4897 84.0908 98.4897L87.2908 93.4997C87.2908 93.4997 84.5008 91.8297 82.3608 88.6297C80.3008 85.4397 80.3008 82.6997 80.3008 82.6997V46.2197H74.3008H74.3108Z" fill="#003873"/>
<path d="M117.2 46.0898V82.5699C117.2 82.5699 116.74 86.2398 115 88.8298C113.27 91.4898 110.4 93.6299 110.4 93.6299L113.48 98.5498C113.48 98.5498 118.13 95.1598 120.39 91.5598C122.66 87.9698 123.2 82.5699 123.2 82.5699V46.0898H117.2Z" fill="#003873"/>
<path d="M64.8105 46.2197V84.1697C64.8105 84.1697 65.2005 90.0297 68.8605 96.1597C72.5405 102.28 79.1805 106.54 79.1805 106.54L82.3205 101.55C82.3205 101.55 78.0505 99.2897 74.6705 94.0797C71.1905 88.8197 71.0106 84.0297 71.0106 84.0297V46.2197H64.8205H64.8105Z" fill="#003873"/>
<path d="M92.2297 50.21V90.29C92.2297 90.29 92.0797 90.43 92.0297 91.02C91.9597 91.63 91.5597 92.03 91.5597 92.03L78.1797 114.2H119.19L105.8 91.56L105.4 90.55L105.26 89.49V50.28H100.27V90.97C100.27 90.97 100.27 91.55 100.47 92.03C100.59 92.5 100.87 93.22 100.87 93.22L109.12 106.8H88.2097L96.3297 93.29C96.3297 93.29 96.5997 92.83 96.7997 92.16C96.9397 91.56 96.9997 90.97 96.9997 90.97V50.21H92.2097H92.2297Z" fill="#A68238"/>
<path d="M126.45 46.0901V83.3801C126.45 83.3801 126.39 88.1701 122.86 93.7001C119.33 99.2301 115.27 101.56 115.27 101.56L118.27 106.61C118.27 106.61 124.39 102.75 128.26 96.6201C132.06 90.4901 132.52 83.3701 132.52 83.3701V46.0801H126.45V46.0901Z" fill="#003873"/>
<path d="M82.5098 21.1196C82.5098 21.1196 80.4498 9.87956 88.6998 4.26956C88.6998 4.26956 92.4298 0.80957 98.4798 0.80957C104.95 0.80957 108.67 4.19958 108.67 4.19958C117.66 10.7796 115 21.1096 115 21.1096H82.5098V21.1196Z" fill="#A68238"/>
<path d="M72.6391 114.2H39.0391V0.80957H69.6391V1.05957H39.2891V113.95H72.6391V114.2Z" fill="#231815"/>
<path d="M155.119 114.2H125.359V113.95H154.869V1.05957H127.359V0.80957H155.119V114.2Z" fill="#231815"/>
<path d="M0 49.4395H2.56C3.22 49.4395 3.73 49.5995 4.1 49.9195C4.47 50.2395 4.65 50.6795 4.65 51.2295C4.65 51.7795 4.46 52.2294 4.09 52.5494C3.72 52.8694 3.21 53.0294 2.55 53.0294H0.74V55.8495H0V49.4395ZM2.49 52.4195C2.96 52.4195 3.32 52.3194 3.56 52.1094C3.8 51.9094 3.92 51.6095 3.92 51.2295C3.92 50.8495 3.8 50.5495 3.56 50.3495C3.32 50.1495 2.96 50.0494 2.49 50.0494H0.74V52.4195H2.5H2.49Z" fill="#231815"/>
<path d="M10.8891 55.8502H10.1091L9.31914 53.7202C9.21914 53.4602 9.08914 53.2802 8.91914 53.1902C8.74914 53.1002 8.50914 53.0602 8.19914 53.0602H6.59914V55.8602H5.86914V49.4502H8.41914C9.10914 49.4502 9.63914 49.6002 10.0091 49.9102C10.3791 50.2202 10.5591 50.6602 10.5591 51.2302C10.5591 51.6502 10.4491 52.0002 10.2291 52.2902C10.0091 52.5802 9.68914 52.7802 9.27914 52.9002C9.46914 52.9302 9.61914 53.0102 9.75914 53.1402C9.88914 53.2702 9.99914 53.4502 10.0891 53.6902L10.8991 55.8602L10.8891 55.8502ZM8.33914 52.4402C9.31914 52.4402 9.81914 52.0402 9.81914 51.2302C9.81914 50.8302 9.69914 50.5402 9.45914 50.3402C9.21914 50.1502 8.84914 50.0502 8.33914 50.0502H6.58914V52.4302H8.33914V52.4402Z" fill="#231815"/>
<path d="M12.0996 49.4395H12.8396V55.8495H12.0996V49.4395Z" fill="#231815"/>
<path d="M19.5599 49.4395V55.8495H18.9799L15.1099 50.6895V55.8495H14.4199V49.4395H14.9899L18.8599 54.5995V49.4395H19.5599Z" fill="#231815"/>
<path d="M22.6792 50.0695H20.4492V49.4395H25.6592V50.0695H23.4292V55.8495H22.6792V50.0695Z" fill="#231815"/>
<path d="M25.9805 55.1099L26.2605 54.5399C26.5805 54.8099 26.9005 54.9999 27.2305 55.1199C27.5605 55.2299 27.9405 55.2899 28.3805 55.2899C28.9005 55.2899 29.2905 55.1899 29.5705 54.9899C29.8505 54.7899 29.9905 54.5099 29.9905 54.1399C29.9905 53.9199 29.9205 53.7499 29.7905 53.6099C29.6605 53.4699 29.4805 53.3699 29.2605 53.2899C29.0405 53.2099 28.7505 53.1299 28.3805 53.0499C27.8905 52.9399 27.4805 52.8199 27.1705 52.6999C26.8505 52.5699 26.5905 52.3899 26.4005 52.1599C26.2105 51.9299 26.1005 51.6099 26.1005 51.2299C26.1005 50.8499 26.2005 50.5399 26.3905 50.2599C26.5805 49.9799 26.8505 49.7599 27.2005 49.6099C27.5505 49.4499 27.9605 49.3799 28.4305 49.3799C28.8705 49.3799 29.2905 49.4499 29.6705 49.5899C30.0505 49.7299 30.3805 49.9299 30.6405 50.1899L30.3505 50.7599C30.0505 50.4999 29.7505 50.3099 29.4405 50.1899C29.1305 50.0699 28.7905 50.0099 28.4305 50.0099C27.9305 50.0099 27.5405 50.1199 27.2605 50.3299C26.9805 50.5399 26.8405 50.8299 26.8405 51.2099C26.8405 51.5299 26.9605 51.7799 27.2105 51.9399C27.4605 52.0999 27.8305 52.2399 28.3405 52.3599C28.8905 52.4899 29.3305 52.6099 29.6405 52.7199C29.9605 52.8299 30.2205 52.9999 30.4305 53.2199C30.6405 53.4499 30.7405 53.7399 30.7405 54.1199C30.7405 54.4999 30.6405 54.7999 30.4505 55.0699C30.2605 55.3399 29.9805 55.5499 29.6305 55.6999C29.2705 55.8499 28.8505 55.9299 28.3805 55.9299C27.3805 55.9299 26.5805 55.6599 25.9905 55.1199L25.9805 55.1099Z" fill="#231815"/>
<path d="M12.7395 64.8502C12.9995 65.1602 13.1195 65.5302 13.1195 65.9702C13.1195 66.5802 12.8895 67.0501 12.4295 67.4001C11.9695 67.7501 11.3495 67.9301 10.5695 67.9301C9.78953 67.9301 9.16953 67.7501 8.70953 67.4001C8.24953 67.0501 8.01953 66.5702 8.01953 65.9702C8.01953 65.5402 8.14953 65.1602 8.41953 64.8502C8.67953 64.5402 9.03953 64.3202 9.49953 64.2002C9.06953 64.0702 8.74953 63.8701 8.51953 63.5801C8.28953 63.2901 8.17953 62.9502 8.17953 62.5602C8.17953 62.1702 8.27953 61.8502 8.47953 61.5602C8.67953 61.2702 8.95953 61.0601 9.31953 60.9001C9.67953 60.7401 10.0995 60.6602 10.5695 60.6602C11.0395 60.6602 11.4495 60.7401 11.8195 60.9001C12.1895 61.0601 12.4695 61.2802 12.6595 61.5602C12.8595 61.8402 12.9595 62.1702 12.9595 62.5602C12.9595 62.9502 12.8395 63.2901 12.6095 63.5801C12.3795 63.8701 12.0595 64.0802 11.6495 64.2002C12.1195 64.3302 12.4795 64.5401 12.7295 64.8601L12.7395 64.8502ZM11.8595 66.9001C12.1595 66.6701 12.3095 66.3402 12.3095 65.9102C12.3095 65.5202 12.1495 65.2002 11.8395 64.9702C11.5195 64.7302 11.0995 64.5902 10.5695 64.5302C10.0395 64.5802 9.61953 64.7302 9.30953 64.9702C8.99953 65.2102 8.82953 65.5202 8.82953 65.9102C8.82953 66.3402 8.97953 66.6701 9.27953 66.9001C9.57953 67.1301 10.0095 67.2401 10.5695 67.2401C11.1295 67.2401 11.5595 67.1301 11.8595 66.9001V66.9001ZM9.42953 63.5201C9.70953 63.7601 10.0995 63.9001 10.5695 63.9601C11.0495 63.9101 11.4295 63.7601 11.7195 63.5201C11.9995 63.2801 12.1395 62.9802 12.1395 62.6002C12.1395 62.2202 11.9995 61.9002 11.7195 61.6702C11.4395 61.4402 11.0595 61.3301 10.5595 61.3301C10.0595 61.3301 9.67953 61.4402 9.40953 61.6702C9.12953 61.9002 8.98953 62.2102 8.98953 62.6002C8.98953 62.9902 9.12953 63.2901 9.40953 63.5201H9.42953Z" fill="#AA8420"/>
<path d="M21.6093 64.6902V67.8502H20.7993V64.7302C20.7993 64.2602 20.7193 63.9102 20.5493 63.7002C20.3893 63.4902 20.1193 63.3802 19.7593 63.3802C19.3293 63.3802 18.9993 63.5202 18.7593 63.8102C18.5193 64.1002 18.3993 64.4902 18.3993 64.9802V67.8502H17.5893V64.7302C17.5893 64.2602 17.5093 63.9202 17.3393 63.7102C17.1693 63.4902 16.9093 63.3802 16.5393 63.3802C16.1093 63.3802 15.7793 63.5202 15.5393 63.8102C15.2993 64.1002 15.1693 64.4902 15.1693 64.9802V67.8502H14.3593V64.2302C14.3593 63.7102 14.3293 63.2402 14.2793 62.8202H15.0493L15.1293 63.7002C15.2693 63.3802 15.4793 63.1302 15.7493 62.9602C16.0293 62.7902 16.3493 62.7002 16.7193 62.7002C17.1193 62.7002 17.4493 62.7802 17.6993 62.9402C17.9493 63.1002 18.1393 63.3502 18.2593 63.6802C18.4093 63.3802 18.6393 63.1402 18.9293 62.9702C19.2293 62.7902 19.5593 62.7002 19.9293 62.7002C21.0393 62.7002 21.5993 63.3602 21.5993 64.6902H21.6093Z" fill="#AA8420"/>
<path d="M30.4003 64.6902V67.8502H29.5903V64.7302C29.5903 64.2602 29.5103 63.9102 29.3403 63.7002C29.1803 63.4902 28.9103 63.3802 28.5503 63.3802C28.1203 63.3802 27.7903 63.5202 27.5503 63.8102C27.3103 64.1002 27.1903 64.4902 27.1903 64.9802V67.8502H26.3803V64.7302C26.3803 64.2602 26.3003 63.9202 26.1303 63.7102C25.9603 63.4902 25.7003 63.3802 25.3303 63.3802C24.9003 63.3802 24.5703 63.5202 24.3303 63.8102C24.0903 64.1002 23.9603 64.4902 23.9603 64.9802V67.8502H23.1503V64.2302C23.1503 63.7102 23.1203 63.2402 23.0703 62.8202H23.8403L23.9203 63.7002C24.0603 63.3802 24.2703 63.1302 24.5403 62.9602C24.8203 62.7902 25.1403 62.7002 25.5103 62.7002C25.9103 62.7002 26.2403 62.7802 26.4903 62.9402C26.7403 63.1002 26.9303 63.3502 27.0503 63.6802C27.2003 63.3802 27.4303 63.1402 27.7203 62.9702C28.0203 62.7902 28.3503 62.7002 28.7203 62.7002C29.8303 62.7002 30.3903 63.3602 30.3903 64.6902H30.4003Z" fill="#AA8420"/>
<path d="M162.931 55.5301C162.491 55.2701 162.151 54.8901 161.921 54.3901C161.681 53.9001 161.561 53.3101 161.561 52.6501C161.561 51.9901 161.681 51.4001 161.911 50.9001C162.141 50.4101 162.481 50.0301 162.921 49.7701C163.361 49.5101 163.881 49.3701 164.481 49.3701C165.081 49.3701 165.601 49.5001 166.041 49.7701C166.481 50.0301 166.811 50.4101 167.051 50.9001C167.281 51.3901 167.401 51.9701 167.401 52.6401C167.401 53.3101 167.281 53.8901 167.041 54.3901C166.801 54.8901 166.471 55.2601 166.031 55.5301C165.591 55.8001 165.081 55.9301 164.481 55.9301C163.881 55.9301 163.371 55.8001 162.931 55.5301V55.5301ZM166.061 54.6001C166.441 54.1401 166.631 53.4801 166.631 52.6401C166.631 51.8001 166.441 51.1401 166.071 50.6901C165.701 50.2401 165.171 50.0101 164.481 50.0101C163.791 50.0101 163.271 50.2401 162.891 50.7001C162.511 51.1601 162.321 51.8101 162.321 52.6501C162.321 53.4901 162.511 54.1501 162.891 54.6101C163.271 55.0701 163.801 55.3001 164.481 55.3001C165.161 55.3001 165.691 55.0701 166.061 54.6101V54.6001Z" fill="#231815"/>
<path d="M173.88 49.4404V55.8504H173.3L169.43 50.6904V55.8504H168.74V49.4404H169.31L173.18 54.6004V49.4404H173.88V49.4404Z" fill="#231815"/>
<path d="M175.461 49.4404H176.201V55.2204H179.411V55.8504H175.461V49.4404V49.4404Z" fill="#231815"/>
<path d="M180.361 49.4404H181.101V55.8504H180.361V49.4404Z" fill="#231815"/>
<path d="M187.82 49.4404V55.8504H187.24L183.37 50.6904V55.8504H182.68V49.4404H183.25L187.12 54.6004V49.4404H187.82V49.4404Z" fill="#231815"/>
<path d="M189.4 49.4397H193.45V50.0497H190.13V52.2797H193.27V52.8997H190.13V55.2297H193.45V55.8397H189.4V49.4297V49.4397Z" fill="#231815"/>
<path d="M166.67 66.3004H165.59V67.8505H164.77V66.3004H161.49V65.6805L164.92 60.7305H165.59V65.6205H166.67V66.3004ZM164.77 65.6205V62.1205L162.34 65.6205H164.77Z" fill="#AA8420"/>
<path d="M168.15 67.0102C167.73 66.3902 167.52 65.4901 167.52 64.3001C167.52 63.1101 167.73 62.2001 168.15 61.5801C168.57 60.9601 169.19 60.6602 170.01 60.6602C170.83 60.6602 171.44 60.9701 171.86 61.5801C172.28 62.2001 172.5 63.1002 172.5 64.2902C172.5 65.4802 172.29 66.3902 171.86 67.0102C171.44 67.6302 170.82 67.9402 170.01 67.9402C169.2 67.9402 168.58 67.6301 168.15 67.0201V67.0102ZM171.26 66.5201C171.53 66.0401 171.67 65.2902 171.67 64.2802C171.67 63.2702 171.54 62.5302 171.27 62.0602C171 61.5902 170.58 61.3502 170.01 61.3502C169.44 61.3502 169.02 61.5902 168.76 62.0602C168.49 62.5302 168.35 63.2702 168.35 64.2802C168.35 65.2902 168.48 66.0301 168.76 66.5201C169.03 67.0001 169.45 67.2401 170.01 67.2401C170.57 67.2401 170.99 67.0001 171.26 66.5201Z" fill="#AA8420"/>
<path d="M180.071 63.0302C180.411 63.2502 180.671 63.5602 180.861 63.9602C181.051 64.3602 181.141 64.8102 181.141 65.3402C181.141 65.8702 181.051 66.3102 180.861 66.7002C180.671 67.0902 180.411 67.3902 180.071 67.6102C179.731 67.8202 179.341 67.9302 178.901 67.9302C178.511 67.9302 178.161 67.8402 177.871 67.6702C177.581 67.5002 177.351 67.2502 177.201 66.9302V70.0202H176.391V64.2402C176.391 63.7202 176.361 63.2502 176.311 62.8302H177.081L177.161 63.8002C177.301 63.4502 177.521 63.1802 177.831 62.9902C178.131 62.8002 178.491 62.7002 178.911 62.7002C179.351 62.7002 179.741 62.8102 180.081 63.0302H180.071ZM179.901 66.7502C180.171 66.4202 180.311 65.9402 180.311 65.3302C180.311 64.7202 180.171 64.2402 179.901 63.8902C179.631 63.5502 179.251 63.3802 178.761 63.3802C178.271 63.3802 177.881 63.5502 177.611 63.8802C177.341 64.2102 177.211 64.6902 177.211 65.3102C177.211 65.9302 177.341 66.4102 177.611 66.7402C177.881 67.0802 178.261 67.2502 178.761 67.2502C179.261 67.2502 179.641 67.0802 179.901 66.7502Z" fill="#AA8420"/>
<path d="M186.751 67.8503H185.781L184.191 65.8703L182.621 67.8503H181.631L183.721 65.2603L181.751 62.8203H182.731L184.191 64.6703L185.651 62.8203H186.641L184.681 65.2603L186.751 67.8503Z" fill="#AA8420"/>
</svg>
