<?xml version="1.0" encoding="utf-8"?>
<!-- Generator: Adobe Illustrator 26.0.1, SVG Export Plug-In . SVG Version: 6.00 Build 0)  -->
<!DOCTYPE svg PUBLIC "-//W3C//DTD SVG 1.1//EN" "http://www.w3.org/Graphics/SVG/1.1/DTD/svg11.dtd" [
	<!ENTITY ns_extend "http://ns.adobe.com/Extensibility/1.0/">
	<!ENTITY ns_ai "http://ns.adobe.com/AdobeIllustrator/10.0/">
	<!ENTITY ns_graphs "http://ns.adobe.com/Graphs/1.0/">
	<!ENTITY ns_vars "http://ns.adobe.com/Variables/1.0/">
	<!ENTITY ns_imrep "http://ns.adobe.com/ImageReplacement/1.0/">
	<!ENTITY ns_sfw "http://ns.adobe.com/SaveForWeb/1.0/">
	<!ENTITY ns_custom "http://ns.adobe.com/GenericCustomNamespace/1.0/">
	<!ENTITY ns_adobe_xpath "http://ns.adobe.com/XPath/1.0/">
]>
<svg version="1.1" id="圖層_1" xmlns:x="&ns_extend;" xmlns:i="&ns_ai;" xmlns:graph="&ns_graphs;"
	 xmlns="http://www.w3.org/2000/svg" xmlns:xlink="http://www.w3.org/1999/xlink" x="0px" y="0px" width="424.8px" height="68.5px"
	 viewBox="0 0 424.8 68.5" style="enable-background:new 0 0 424.8 68.5;" xml:space="preserve">
<style type="text/css">
	.st0{fill:#996600;}
	.st1{fill:#003366;}
</style>
<metadata>
	<sfw  xmlns="&ns_sfw;">
		<slices></slices>
		<sliceSourceBounds  bottomLeftOrigin="true" height="68.5" width="424.8" x="0" y="-0.1"></sliceSourceBounds>
		<optimizationSettings>
			<targetSettings  fileFormat="JPEGFormat" targetSettingsID="0">
				
					<JPEGFormat  blurAmount="0" embedICCProfile="false" matteColor="#FFFFFF" noMatteColor="true" optimized="true" progressive="false" quality="100">
					</JPEGFormat>
			</targetSettings>
		</optimizationSettings>
	</sfw>
</metadata>
<g>
	<g>
		<g>
			<path class="st0" d="M34.3,68.5l-8-13.4c0,0-0.3-0.3-0.3-0.8V54v-0.7V29.6h-3v24.8v0.8c0.3,0.3,5.3,8.9,5.3,8.9H15.8
				c0,0,5-8.6,5.3-8.9v-0.8V29.6h-3v23.8v0.7v0.3c0,0.5-0.3,0.8-0.3,0.8l-8,13.4L34.3,68.5L34.3,68.5z"/>
		</g>
		<g>
			<path class="st0" d="M31.9,12.3c0,0,1.5-6.2-3.9-10.3c0,0-2.2-1.9-6.2-1.9C18.1,0.1,16,2,16,2c-5,3.4-3.7,10.3-3.7,10.3H31.9z"/>
			<path class="st0" d="M12.9,14h18.4c0.1-0.3,0.3-0.7,0.4-1.1H12.5C12.6,13.3,12.7,13.6,12.9,14z"/>
			<path class="st0" d="M31,14.6H13.2c0.2,0.4,0.4,0.7,0.6,1.1h16.6C30.6,15.4,30.8,15,31,14.6z"/>
			<path class="st0" d="M15,17.2h14.2c0.3-0.3,0.5-0.6,0.7-0.9H14.2C14.5,16.7,14.7,16.9,15,17.2z"/>
			<path class="st0" d="M16.5,18.5h11.1c0.3-0.2,0.6-0.4,0.8-0.6H15.7C16,18.1,16.2,18.3,16.5,18.5z"/>
			<path class="st0" d="M18.1,19.4c1.2,0.6,2.6,0.9,4,0.9s2.8-0.3,4-0.9H18.1z"/>
		</g>
		<path class="st1" d="M41.2,20.7H26.1c0,0-1.4,0-2.5,0.8c-0.9,0.6-1.5,2-1.5,2l0,0c0-0.1-0.6-1.4-1.5-2c-1.1-0.8-2.5-0.8-2.5-0.8H3
			l-3,4.8h13.8c0,0,0.4,0,0.7,0c0.4,0.1,1.1,0.3,1.9,0.8c1,0.7,1.3,1.1,1.6,1.4c0.1,0.1,0.4,0.6,0.4,0.6h3.4h0.4l0,0h1.2H26
			c0,0,0.3-0.4,0.4-0.6c0.3-0.3,0.5-0.6,1.6-1.4c0.7-0.5,1.5-0.8,1.9-0.8c0.3,0,0.7,0,0.7,0h13.8L41.2,20.7z"/>
		<g>
			<g>
				<path class="st1" d="M1.5,27v22.6c0,0,0,0.2,0,0.3c0,0.3,0,0.5,0,0.7c0.2,2.4,1,4.2,2.4,6.6c2.2,3.7,6.2,6.3,6.2,6.3l1.9-3
					c0,0-2.6-1.4-4.6-4.5c-0.4-0.6-0.8-1.2-1.1-1.8c-0.3-0.5-0.5-1-0.6-1.5c-0.1-0.3-0.2-0.7-0.3-1c-0.1-0.4-0.1-0.7-0.2-1.1
					c0-0.1,0-0.7,0-0.7v-0.1V27H1.5z"/>
				<path class="st1" d="M7.3,27v22.8c0,0,0,0.1,0,0.2c0,0.1,0,0.3,0,0.4c0,0.1,0,0.2,0,0.2c0.1,0.4,0.1,0.7,0.3,1.1
					c0.3,0.8,0.7,1.7,1.4,2.8c1.7,2.7,4.1,4,4.1,4l1.9-2.9c0,0-0.6-0.3-1.4-1.1c-0.5-0.5-1.1-1.1-1.6-1.9c-0.5-0.8-0.8-1.6-1-2.2
					c-0.1-0.5-0.2-0.9-0.2-1.1c0-0.2,0-0.3,0-0.3V27H7.3z"/>
			</g>
			<g>
				<path class="st1" d="M42.7,27v22.6c0,0,0,0.2,0,0.3c0,0.3,0,0.5,0,0.7c-0.2,2.4-1,4.2-2.4,6.6C38,60.8,34,63.4,34,63.4l-1.9-3
					c0,0,2.6-1.4,4.6-4.5c0.4-0.6,0.8-1.2,1.1-1.8c0.3-0.5,0.5-1,0.6-1.5c0.1-0.3,0.2-0.7,0.3-1c0.1-0.4,0.1-0.7,0.2-1.1
					c0-0.1,0-0.7,0-0.7v-0.1V27H42.7z"/>
				<path class="st1" d="M36.9,27v22.8c0,0,0,0.1,0,0.2c0,0.1,0,0.3,0,0.4c0,0.1,0,0.2,0,0.2c-0.1,0.4-0.2,0.7-0.3,1.1
					c-0.3,0.8-0.7,1.7-1.4,2.8c-1.7,2.7-4.1,4-4.1,4l-1.9-2.9c0,0,0.6-0.3,1.4-1.1c0.5-0.5,1.1-1.1,1.6-1.9c0.5-0.8,0.8-1.6,1-2.2
					c0.1-0.5,0.2-0.9,0.2-1.1c0-0.2,0-0.3,0-0.3V27H36.9z"/>
			</g>
		</g>
	</g>
	<g>
		<g>
			<g>
				<path class="st1" d="M86.4,39.9v14.4h-3.1v-1.5H67v1.5h-3.1V40c-0.6,0.2-1.5,0.6-2.8,1l-1.6-3c4-1,7.5-2.7,10.5-5.2H59.8V30
					h13.6v-2.7c-5,0.1-8.5,0.2-10.7,0.2l-1.1-3.1c1.3,0,2.8,0.1,4.7,0.1c8.8,0,15.5-0.5,20-1.5l1.4,2.7c-3,0.6-6.7,1.1-11.2,1.5V30
					h14v2.8H79.8c2.6,2.5,6.2,4.2,11,5.2l-1.5,3c-0.4-0.2-0.9-0.4-1.5-0.5C87.3,40.3,86.9,40.1,86.4,39.9z M65.8,39.1h7.6V33
					C71.5,35.7,68.9,37.8,65.8,39.1z M83.3,41.9H67v2.5h16.3V41.9z M67,50h16.3v-2.9H67V50z M76.5,33v6.1h8.2
					C81.3,37.8,78.6,35.7,76.5,33z"/>
				<path class="st1" d="M108.4,44c-0.9,3.6-2.3,6.9-4.2,9.9l-2.7-2.7c1.9-2.8,3.3-5.7,4-8.9L108.4,44z M106.3,38.6
					c-1.8-1.5-3.3-2.7-4.6-3.6l2-2.5c1.6,0.8,3.2,1.9,4.9,3.2L106.3,38.6z M109.6,26.7h4.4v-3.5h3v3.5h6.1v-3.5h3v3.5h5.5v2.6h-5.5
					v3.4h6v2.8h-6.3c0.9,1.8,3.1,3.6,6.7,5.3l-1.4,3c-2-1.2-3.7-2.4-5-3.6V47h-10.7v2.1c0,0.8,0.4,1.2,1.2,1.2h9.9
					c0.9,0,1.5-0.3,1.7-1c0.2-0.7,0.3-1.9,0.5-3.7l3.2,1.2c-0.4,3.1-0.8,4.9-1.4,5.5c-0.6,0.6-1.7,0.9-3.4,0.9H116
					c-1.4,0-2.4-0.3-3-0.8c-0.6-0.6-0.8-1.6-0.8-3.1v-7.4c-0.6,0.5-1.6,1.2-3.1,2.1l-1.9-2.8c3.7-1.7,6-3.5,7-5.6h-5.3v-2.8h5.1
					v-3.3h-4.4v-1.8l-2,2.5c-1.8-1.7-3.5-3-4.9-3.9l2.2-2.5c1.9,1.2,3.5,2.3,4.8,3.3L109.6,26.7L109.6,26.7z M115.2,41.2v3.3h7.6
					v-3.3H115.2z M117.8,35.6c-0.5,1.1-1.1,2.1-2,3h8.5c-0.7-0.8-1.4-1.8-2-3H117.8z M117,29.5v3.3h6v-3.3H117z"/>
				<path class="st1" d="M149.5,27.8c-1.2,0.2-2.9,0.4-5.1,0.6l-0.7-2.8c5-0.2,9.2-1,12.8-2.4l1.1,2.7c-1.6,0.6-3.3,1-5,1.4V32h5
					v2.9h-5v0.3c2.5,2.3,4.3,4.1,5.6,5.5l-1.9,2.9c-0.7-0.9-1.3-1.8-2-2.5c-0.6-0.7-1.2-1.4-1.8-2.2v15.4l-3.1,0.1V40.6
					c-0.8,2.1-2.3,4.6-4.5,7.4l-1.9-3c2.8-3.2,4.9-6.6,6.3-10.3h-6.1v-2.9h6.2L149.5,27.8L149.5,27.8z M157.2,46.8v-3.1l11.1-1.7V23
					h3.1v18.7l3-0.5v3l-3,0.5v9.5h-3.1v-9.1L157.2,46.8z M164.4,40.1c-2.3-1.9-4.3-3.4-6-4.4l2-2.2c1.7,0.9,3.7,2.2,6.1,4.1
					L164.4,40.1z M165,32c-2.5-2-4.4-3.4-6-4.3l2-2.2c1.4,0.8,3.5,2.1,6.1,4L165,32z"/>
				<path class="st1" d="M197.4,32.8h-3.9v5.9c1.8-0.6,3.1-1.1,3.9-1.5v3.3c-0.7,0.4-2,0.9-3.9,1.5v8.1c0,1.6-0.2,2.6-0.7,3.1
					s-1.5,0.8-3.2,0.8H187l-0.8-3.4l2.9,0.1c0.7,0,1.1-0.4,1.1-1.1v-6.8c-1.9,0.5-3.4,0.9-4.4,1.1l-0.8-3.6c1.9-0.2,3.7-0.6,5.2-1
					v-6.7h-4.9v-3h4.9V23h3.3v6.8h3.9v-2.1h7.1V23h3.3v4.7h7.8v3h-7.8v4.4h6.7v2.8c-0.3,1.2-1,2.8-2.2,4.7s-2.4,3.4-3.6,4.5
					c2.2,1.8,4.7,3.1,7.5,3.9l-1.7,3.1c-2.9-1-5.7-2.6-8.2-4.9c-3.5,2.7-6.8,4.3-10,5l-1.8-3c3.2-0.7,6.4-2.1,9.6-4.3
					c-1.7-1.7-3.4-4.1-5-7.1l2.8-1.1c1.5,2.7,3.1,4.8,4.6,6.3c2.3-1.8,3.9-4.1,4.8-6.9H198V35h6.6v-4.4h-7.1L197.4,32.8z"/>
				<path class="st1" d="M246.7,34.8c0.5,2.7,1.7,5.5,3.6,8.5c1.9,3,4.5,5.5,7.8,7.7l-2.6,3.1c-6-3.9-10.1-10.3-12.3-19.3h-0.5
					c-1.5,8-5.9,14.4-13.4,19.3l-2.5-3.2c3.1-1.8,5.8-4.1,8.1-7.1c2.2-2.9,3.6-5.9,4.2-9.1h-11.5v-3.5h12c0.3-2,0.4-4.8,0.4-8.3h3.5
					c0,3.8-0.1,6.6-0.3,8.3h14.1v3.5L246.7,34.8z"/>
				<path class="st1" d="M293.3,41v2.4c-1.9,1-4.3,2-7.2,2.9h13.8V49h-13.8v1.4c0,2.4-1,3.6-3,3.6h-4.9l-0.8-2.7l4.5,0.1
					c0.7,0,1-0.3,1-1V49h-14.4v-2.7H283v-1.4c1.5-0.3,3.5-0.7,5.8-1.4h-14V41H293.3z M296.2,39.6h-24v4.9h-3V37h1.7l-0.4-12.7
					c2.9-0.1,5.3-0.4,7.3-1l1.5,2.5c-1.2,0.4-3.2,0.7-5.9,0.9l0.1,1.7h5.2v2.3h-5.1v1.9h5v2.3h-5l0.1,2.2h20.8v-2.2H290v-2.3h4.7
					l0.1-1.9H290v-2.3h4.9v-1.8h-5.3V24h8.2l-0.3,13h1.8v7.5h-3L296.2,39.6L296.2,39.6z M284.7,27.7c-1.1,0.7-2.4,1.4-3.9,2
					l-1.7-2.2c1.9-0.5,3.1-1,3.7-1.4c-0.6-0.4-1.3-1-2.3-1.6l1.8-1.6c0.9,0.6,1.7,1.2,2.6,1.8c1-0.6,1.6-1.2,2-1.8l1.7,1.5
					c-0.5,0.7-1.1,1.3-2,1.8c0.4,0.4,1,1,1.8,1.8l-2,1.5C285.6,28.3,285,27.7,284.7,27.7z M284.9,34.5c-1,0.7-2.3,1.3-3.9,1.9
					l-1.4-2.2c1.5-0.3,2.7-0.7,3.4-1.2c-0.4-0.3-1.2-0.9-2.2-1.6l1.7-1.5c0.4,0.3,0.8,0.5,1.2,0.7c0.4,0.3,0.9,0.6,1.4,1
					c0.7-0.4,1.4-1.1,2.3-2.1l1.8,1.5c-0.8,0.8-1.6,1.5-2.3,2c0.6,0.6,1.3,1.1,1.9,1.8l-2.1,1.6C285.7,35.1,285.1,34.5,284.9,34.5z"
					/>
			</g>
		</g>
		<g>
			<g>
				<g>
					<path class="st1" d="M323.5,22.6c-1.5,2.8-2.5,5.1-3.2,6.8c-1,3-1.5,6.1-1.5,9.3c0,5.2,1.5,10.5,4.6,16.1h-2.5
						c-1.7-2.3-3.1-4.8-4.2-7.7s-1.6-5.7-1.6-8.5c0-3.8,1-7.6,2.9-11.3c1-2,2-3.5,2.9-4.7C320.9,22.6,323.5,22.6,323.5,22.6z"/>
					<path class="st1" d="M336.7,27v6.2c0,9.5-1.1,16.4-3.3,20.8l-2.3-2.6c1.7-4,2.6-10.3,2.6-18.8v-8.1h13.9
						c-0.1-0.2-0.4-0.9-0.9-1.9l3.2-0.4c0.4,0.6,0.8,1.4,1.2,2.3h11.7V27H336.7z M346,49.5l1.8,2.1c-2.4,1.1-5.7,2-9.9,2.7l-1.4-2.7
						C340.6,51.3,343.8,50.6,346,49.5z M353.1,49.5h-13.6v-11h9.1v-1.6h-10.9v-2.3h24.7v2.3h-11v1.6h9.1v11H353.1
						c4.3,1.1,7.3,1.8,9.1,2.2l-1.6,2.5c-1.3-0.4-2.7-0.8-4.2-1.3c-1.7-0.5-3.3-1-4.8-1.4L353.1,49.5z M348.6,42.9v-2.2h-6.2v2.2
						H348.6z M348.6,47.2v-2.3h-6.2v2.3H348.6z M357.7,42.9v-2.2h-6.3v2.2H357.7z M357.7,47.2v-2.3h-6.3v2.3H357.7z"/>
					<path class="st1" d="M380.8,30.8c-0.2,3.4-0.9,6.8-2,10.3l-3.2-1.3c1.2-2.8,1.9-6,2.1-9.7L380.8,30.8z M379,53.6l-2.9-2.7
						c2-1.5,3.6-3.3,4.7-5.5c1.1-2.3,1.6-5.7,1.6-10.4V23h3.3v14.2C385.8,44.3,383.5,49.7,379,53.6z M388.7,41.1
						c-0.7-4.3-1.6-7.5-2.6-9.7l3-1.1c1.2,3.2,2.2,6.6,2.9,9.9L388.7,41.1z M392.5,23.3h3.2v29.8h-3.2V23.3z M399.3,40.8
						c-0.4-3-1.3-6.2-2.9-9.6l2.9-1.1c1.5,3.5,2.6,6.8,3.4,9.7L399.3,40.8z M403.2,22.6h3.4v31.6h-3.4V22.6z"/>
					<path class="st1" d="M424.8,38.7c0,3.8-1,7.6-2.9,11.3c-1,1.8-1.9,3.4-2.9,4.7h-2.5c1.5-2.8,2.5-5,3.2-6.8c1-3,1.5-6.1,1.5-9.3
						c0-5.2-1.5-10.5-4.6-16.1h2.5c1.7,2.2,3.1,4.8,4.2,7.7C424.2,33.2,424.8,36,424.8,38.7z"/>
				</g>
				<path class="st1" d="M346.3,35.6v-3.2h7.7v3.2h3v-3.2h4.4v-2.3H357v-2.2h-3v2.2h-7.7v-2.2h-3v2.2h-4.7v2.3h4.7v3.2H346.3z"/>
			</g>
		</g>
	</g>
</g>
</svg>
